<svg width="1440" height="883" viewBox="0 0 1440 883" fill="none" xmlns="http://www.w3.org/2000/svg">
<g clip-path="url(#clip0_146_3482)">
<rect width="1440" height="883" fill="white"/>
<line x1="663.382" y1="581.754" x2="701.064" y2="595.469" stroke="#E7E7E7" stroke-width="1.90366"/>
<line x1="664.784" y1="667.302" x2="699.511" y2="687.352" stroke="#E7E7E7" stroke-width="1.90366"/>
<line x1="666.174" y1="753.328" x2="696.893" y2="779.104" stroke="#E7E7E7" stroke-width="1.90366"/>
<line x1="670.722" y1="838.34" x2="696.498" y2="869.058" stroke="#FAC326" stroke-width="6.92916"/>
<line x1="664.95" y1="70.1828" x2="695.669" y2="44.407" stroke="#E7E7E7" stroke-width="1.90366"/>
<line x1="663.832" y1="156.018" x2="698.56" y2="135.968" stroke="#E7E7E7" stroke-width="1.90366"/>
<line x1="662.731" y1="241.426" x2="700.413" y2="227.711" stroke="#E7E7E7" stroke-width="1.90366"/>
<line x1="661.637" y1="326.547" x2="701.128" y2="319.584" stroke="#E7E7E7" stroke-width="1.90366"/>
<line x1="661.802" y1="411.533" x2="701.902" y2="411.533" stroke="#E7E7E7" stroke-width="1.90366"/>
<line x1="661.968" y1="496.547" x2="701.458" y2="503.511" stroke="#E7E7E7" stroke-width="1.90366"/>
<line x1="593.206" y1="491.535" x2="630.887" y2="505.25" stroke="#E7E7E7" stroke-width="1.90366"/>
<line x1="594.61" y1="577.071" x2="629.338" y2="597.121" stroke="#E7E7E7" stroke-width="1.90366"/>
<line x1="595.998" y1="663.097" x2="626.716" y2="688.872" stroke="#E7E7E7" stroke-width="1.90366"/>
<line x1="598.621" y1="749.736" x2="624.397" y2="780.454" stroke="#E7E7E7" stroke-width="1.90366"/>
<line x1="602.476" y1="837.085" x2="622.526" y2="871.813" stroke="#E7E7E7" stroke-width="1.90366"/>
<line x1="593.659" y1="65.7993" x2="628.386" y2="45.7492" stroke="#E7E7E7" stroke-width="1.90366"/>
<line x1="592.555" y1="151.195" x2="630.236" y2="137.48" stroke="#E7E7E7" stroke-width="1.90366"/>
<line x1="591.464" y1="236.315" x2="630.955" y2="229.352" stroke="#E7E7E7" stroke-width="1.90366"/>
<line x1="591.629" y1="321.301" x2="631.729" y2="321.301" stroke="#E7E7E7" stroke-width="1.90366"/>
<line x1="591.794" y1="406.328" x2="631.285" y2="413.292" stroke="#E7E7E7" stroke-width="1.90366"/>
<line x1="523.029" y1="401.303" x2="560.711" y2="415.018" stroke="#E7E7E7" stroke-width="1.90366"/>
<line x1="524.434" y1="486.851" x2="559.162" y2="506.901" stroke="#E7E7E7" stroke-width="1.90366"/>
<line x1="525.824" y1="572.877" x2="556.543" y2="598.653" stroke="#E7E7E7" stroke-width="1.90366"/>
<line x1="528.448" y1="659.517" x2="554.224" y2="690.235" stroke="#E7E7E7" stroke-width="1.90366"/>
<line x1="532.303" y1="746.866" x2="552.353" y2="781.594" stroke="#E7E7E7" stroke-width="1.90366"/>
<line x1="534.879" y1="835.022" x2="548.594" y2="872.704" stroke="#E7E7E7" stroke-width="1.90366"/>
<line x1="522.378" y1="60.9755" x2="560.06" y2="47.2604" stroke="#E7E7E7" stroke-width="1.90366"/>
<line x1="521.287" y1="146.096" x2="560.778" y2="139.133" stroke="#E7E7E7" stroke-width="1.90366"/>
<line x1="521.452" y1="231.082" x2="561.552" y2="231.082" stroke="#E7E7E7" stroke-width="1.90366"/>
<line x1="521.618" y1="316.097" x2="561.109" y2="323.06" stroke="#E7E7E7" stroke-width="1.90366"/>
<line x1="452.856" y1="311.084" x2="490.538" y2="324.799" stroke="#E7E7E7" stroke-width="1.90366"/>
<line x1="454.258" y1="396.62" x2="488.985" y2="416.67" stroke="#E7E7E7" stroke-width="1.90366"/>
<line x1="455.648" y1="482.646" x2="486.366" y2="508.421" stroke="#E7E7E7" stroke-width="1.90366"/>
<line x1="458.271" y1="569.285" x2="484.047" y2="600.003" stroke="#E7E7E7" stroke-width="1.90366"/>
<line x1="462.127" y1="656.647" x2="482.177" y2="691.375" stroke="#E7E7E7" stroke-width="1.90366"/>
<line x1="464.702" y1="744.803" x2="478.417" y2="782.485" stroke="#E7E7E7" stroke-width="1.90366"/>
<line x1="468.505" y1="833.837" x2="475.469" y2="873.328" stroke="#E7E7E7" stroke-width="1.90366"/>
<line x1="451.111" y1="55.8645" x2="490.602" y2="48.9012" stroke="#E7E7E7" stroke-width="1.90366"/>
<line x1="451.276" y1="140.85" x2="491.376" y2="140.85" stroke="#E7E7E7" stroke-width="1.90366"/>
<line x1="451.441" y1="225.877" x2="490.932" y2="232.841" stroke="#E7E7E7" stroke-width="1.90366"/>
<line x1="382.68" y1="220.852" x2="420.361" y2="234.567" stroke="#E7E7E7" stroke-width="1.90366"/>
<line x1="384.085" y1="306.4" x2="418.812" y2="326.451" stroke="#E7E7E7" stroke-width="1.90366"/>
<line x1="385.472" y1="392.426" x2="416.19" y2="418.202" stroke="#E7E7E7" stroke-width="1.90366"/>
<line x1="388.098" y1="479.066" x2="413.874" y2="509.784" stroke="#E7E7E7" stroke-width="1.90366"/>
<line x1="391.95" y1="566.415" x2="412" y2="601.143" stroke="#E7E7E7" stroke-width="1.90366"/>
<line x1="396.89" y1="653.712" x2="410.605" y2="691.394" stroke="#FB8E37" stroke-width="6.92916"/>
<line x1="398.329" y1="743.605" x2="405.292" y2="783.096" stroke="#E7E7E7" stroke-width="1.90366"/>
<line x1="381.103" y1="50.631" x2="421.203" y2="50.631" stroke="#E7E7E7" stroke-width="1.90366"/>
<line x1="381.704" y1="133.171" x2="421.195" y2="140.134" stroke="#FAC326" stroke-width="6.92916"/>
<line x1="400.2" y1="883.664" x2="400.2" y2="843.564" stroke="#E7E7E7" stroke-width="1.90366"/>
<line x1="312.506" y1="130.633" x2="350.188" y2="144.348" stroke="#E7E7E7" stroke-width="1.90366"/>
<line x1="313.908" y1="216.169" x2="348.636" y2="236.219" stroke="#E7E7E7" stroke-width="1.90366"/>
<line x1="315.298" y1="302.195" x2="346.017" y2="327.971" stroke="#E7E7E7" stroke-width="1.90366"/>
<line x1="317.922" y1="388.834" x2="343.697" y2="419.552" stroke="#E7E7E7" stroke-width="1.90366"/>
<line x1="321.777" y1="476.196" x2="341.827" y2="510.924" stroke="#E7E7E7" stroke-width="1.90366"/>
<line x1="324.353" y1="564.352" x2="338.068" y2="602.034" stroke="#E7E7E7" stroke-width="1.90366"/>
<line x1="328.156" y1="653.386" x2="335.119" y2="692.877" stroke="#E7E7E7" stroke-width="1.90366"/>
<line x1="311.528" y1="42.9519" x2="351.019" y2="49.9152" stroke="#FB8E37" stroke-width="6.92916"/>
<line x1="330.024" y1="793.432" x2="330.024" y2="753.332" stroke="#E7E7E7" stroke-width="1.90366"/>
<line x1="326.281" y1="883.046" x2="333.244" y2="843.555" stroke="#E7E7E7" stroke-width="1.90366"/>
<line x1="242.33" y1="40.4014" x2="280.012" y2="54.1164" stroke="#E7E7E7" stroke-width="1.90366"/>
<line x1="243.735" y1="125.95" x2="278.462" y2="146" stroke="#E7E7E7" stroke-width="1.90366"/>
<line x1="245.122" y1="211.976" x2="275.841" y2="237.751" stroke="#E7E7E7" stroke-width="1.90366"/>
<line x1="247.745" y1="298.615" x2="273.521" y2="329.333" stroke="#E7E7E7" stroke-width="1.90366"/>
<line x1="251.6" y1="385.964" x2="271.65" y2="420.692" stroke="#E7E7E7" stroke-width="1.90366"/>
<line x1="254.176" y1="474.12" x2="267.891" y2="511.802" stroke="#E7E7E7" stroke-width="1.90366"/>
<line x1="257.979" y1="563.154" x2="264.943" y2="602.645" stroke="#E7E7E7" stroke-width="1.90366"/>
<line x1="259.85" y1="703.213" x2="259.85" y2="663.113" stroke="#E7E7E7" stroke-width="1.90366"/>
<line x1="256.105" y1="792.814" x2="263.068" y2="753.323" stroke="#E7E7E7" stroke-width="1.90366"/>
<line x1="252.387" y1="881.528" x2="266.102" y2="843.846" stroke="#E7E7E7" stroke-width="1.90366"/>
<line x1="173.558" y1="35.7178" x2="208.286" y2="55.7678" stroke="#E7E7E7" stroke-width="1.90366"/>
<line x1="174.949" y1="121.744" x2="205.667" y2="147.52" stroke="#E7E7E7" stroke-width="1.90366"/>
<line x1="177.572" y1="208.383" x2="203.348" y2="239.101" stroke="#E7E7E7" stroke-width="1.90366"/>
<line x1="181.427" y1="295.745" x2="201.477" y2="330.473" stroke="#E7E7E7" stroke-width="1.90366"/>
<line x1="184.003" y1="383.901" x2="197.718" y2="421.583" stroke="#E7E7E7" stroke-width="1.90366"/>
<line x1="187.803" y1="472.935" x2="194.766" y2="512.426" stroke="#E7E7E7" stroke-width="1.90366"/>
<line x1="179.778" y1="879.164" x2="199.829" y2="844.436" stroke="#E7E7E7" stroke-width="1.90366"/>
<line x1="189.674" y1="612.994" x2="189.674" y2="572.894" stroke="#E7E7E7" stroke-width="1.90366"/>
<line x1="185.928" y1="702.595" x2="192.892" y2="663.104" stroke="#E7E7E7" stroke-width="1.90366"/>
<line x1="182.214" y1="791.296" x2="195.929" y2="753.614" stroke="#E7E7E7" stroke-width="1.90366"/>
<line x1="104.772" y1="31.5246" x2="135.491" y2="57.3004" stroke="#E7E7E7" stroke-width="1.90366"/>
<line x1="107.395" y1="118.164" x2="133.171" y2="148.882" stroke="#E7E7E7" stroke-width="1.90366"/>
<line x1="113.427" y1="204.257" x2="133.477" y2="238.985" stroke="#FF4EA2" stroke-width="6.92916"/>
<line x1="113.827" y1="293.669" x2="127.542" y2="331.351" stroke="#E7E7E7" stroke-width="1.90366"/>
<line x1="117.63" y1="382.703" x2="124.593" y2="422.194" stroke="#E7E7E7" stroke-width="1.90366"/>
<line x1="109.602" y1="788.932" x2="129.652" y2="754.204" stroke="#E7E7E7" stroke-width="1.90366"/>
<line x1="105.937" y1="876.022" x2="131.713" y2="845.304" stroke="#E7E7E7" stroke-width="1.90366"/>
<line x1="119.501" y1="522.762" x2="119.501" y2="482.662" stroke="#E7E7E7" stroke-width="1.90366"/>
<line x1="115.755" y1="612.363" x2="122.718" y2="572.873" stroke="#E7E7E7" stroke-width="1.90366"/>
<line x1="112.038" y1="701.077" x2="125.753" y2="663.395" stroke="#E7E7E7" stroke-width="1.90366"/>
<line x1="37.2221" y1="27.932" x2="62.9979" y2="58.6505" stroke="#E7E7E7" stroke-width="1.90366"/>
<line x1="41.0743" y1="115.294" x2="61.1244" y2="150.022" stroke="#E7E7E7" stroke-width="1.90366"/>
<line x1="43.6503" y1="203.45" x2="57.3653" y2="241.132" stroke="#E7E7E7" stroke-width="1.90366"/>
<line x1="47.4532" y1="292.484" x2="54.4165" y2="331.975" stroke="#E7E7E7" stroke-width="1.90366"/>
<line x1="39.4257" y1="698.713" x2="59.4757" y2="663.985" stroke="#E7E7E7" stroke-width="1.90366"/>
<line x1="35.7638" y1="785.791" x2="61.5396" y2="755.072" stroke="#E7E7E7" stroke-width="1.90366"/>
<line x1="33.3723" y1="872.195" x2="64.0908" y2="846.419" stroke="#E7E7E7" stroke-width="1.90366"/>
<line x1="49.3243" y1="432.543" x2="49.3243" y2="392.443" stroke="#E7E7E7" stroke-width="1.90366"/>
<line x1="45.5785" y1="522.144" x2="52.5418" y2="482.653" stroke="#E7E7E7" stroke-width="1.90366"/>
<line x1="41.8614" y1="610.858" x2="55.5765" y2="573.176" stroke="#E7E7E7" stroke-width="1.90366"/>
<line y1="-0.951828" x2="40.1001" y2="-0.951828" transform="matrix(0.766044 -0.642788 -0.642788 -0.766044 1376.06 867.982)" stroke="#E7E7E7" stroke-width="1.90366"/>
<line y1="-3.46458" x2="40.1001" y2="-3.46458" transform="matrix(0.642788 -0.766044 -0.766044 -0.642788 1378.57 781.46)" stroke="#AB56BD" stroke-width="6.92916"/>
<line y1="-0.951828" x2="40.1001" y2="-0.951828" transform="matrix(0.5 -0.866025 -0.866025 -0.5 1382.33 694.234)" stroke="#E7E7E7" stroke-width="1.90366"/>
<line y1="-0.951828" x2="40.1001" y2="-0.951828" transform="matrix(0.34202 -0.939693 -0.939693 -0.34202 1384.83 606.228)" stroke="#E7E7E7" stroke-width="1.90366"/>
<line y1="-0.951828" x2="40.1001" y2="-0.951828" transform="matrix(0.173648 -0.984808 -0.984808 -0.173648 1388.59 517.355)" stroke="#E7E7E7" stroke-width="1.90366"/>
<line y1="-0.951828" x2="40.1001" y2="-0.951828" transform="matrix(0.5 0.866025 0.866025 -0.5 1382.33 110.815)" stroke="#E7E7E7" stroke-width="1.90366"/>
<line y1="-0.951828" x2="40.1001" y2="-0.951828" transform="matrix(0.642788 0.766044 0.766044 -0.642788 1378.57 23.6015)" stroke="#E7E7E7" stroke-width="1.90366"/>
<line y1="-0.951828" x2="40.1001" y2="-0.951828" transform="matrix(4.37114e-08 1 1 -4.37114e-08 1392.35 377.461)" stroke="#E7E7E7" stroke-width="1.90366"/>
<line y1="-0.951828" x2="40.1001" y2="-0.951828" transform="matrix(0.173648 0.984808 0.984808 -0.173648 1388.59 287.694)" stroke="#E7E7E7" stroke-width="1.90366"/>
<line y1="-0.951828" x2="40.1001" y2="-0.951828" transform="matrix(0.34202 0.939693 0.939693 -0.34202 1384.83 198.821)" stroke="#E7E7E7" stroke-width="1.90366"/>
<line y1="-0.951828" x2="40.1001" y2="-0.951828" transform="matrix(0.642788 -0.766044 -0.766044 -0.642788 1308.39 871.679)" stroke="#E7E7E7" stroke-width="1.90366"/>
<line y1="-0.951828" x2="40.1001" y2="-0.951828" transform="matrix(0.5 -0.866025 -0.866025 -0.5 1312.15 784.466)" stroke="#E7E7E7" stroke-width="1.90366"/>
<line y1="-0.951828" x2="40.1001" y2="-0.951828" transform="matrix(0.34202 -0.939693 -0.939693 -0.34202 1314.66 696.46)" stroke="#E7E7E7" stroke-width="1.90366"/>
<line y1="-0.951828" x2="40.1001" y2="-0.951828" transform="matrix(0.173648 -0.984808 -0.984808 -0.173648 1318.42 607.586)" stroke="#E7E7E7" stroke-width="1.90366"/>
<line y1="-0.951828" x2="40.1001" y2="-0.951828" transform="matrix(0.5 0.866025 0.866025 -0.5 1312.15 201.047)" stroke="#E7E7E7" stroke-width="1.90366"/>
<line y1="-0.951828" x2="40.1001" y2="-0.951828" transform="matrix(0.642788 0.766044 0.766044 -0.642788 1308.39 113.821)" stroke="#E7E7E7" stroke-width="1.90366"/>
<line y1="-0.951828" x2="40.1001" y2="-0.951828" transform="matrix(0.766044 0.642788 0.642788 -0.766044 1305.89 27.3114)" stroke="#E7E7E7" stroke-width="1.90366"/>
<line y1="-0.951828" x2="40.1001" y2="-0.951828" transform="matrix(4.37114e-08 1 1 -4.37114e-08 1322.18 467.693)" stroke="#E7E7E7" stroke-width="1.90366"/>
<line y1="-3.46458" x2="40.1001" y2="-3.46458" transform="matrix(0.173648 0.984808 0.984808 -0.173648 1318.42 377.926)" stroke="#048CD8" stroke-width="6.92916"/>
<line y1="-0.951828" x2="40.1001" y2="-0.951828" transform="matrix(0.34202 0.939693 0.939693 -0.34202 1314.66 289.053)" stroke="#E7E7E7" stroke-width="1.90366"/>
<line y1="-0.951828" x2="40.1001" y2="-0.951828" transform="matrix(0.5 -0.866025 -0.866025 -0.5 1241.98 874.685)" stroke="#E7E7E7" stroke-width="1.90366"/>
<line y1="-0.951828" x2="40.1001" y2="-0.951828" transform="matrix(0.34202 -0.939693 -0.939693 -0.34202 1244.48 786.679)" stroke="#E7E7E7" stroke-width="1.90366"/>
<line y1="-0.951828" x2="40.1001" y2="-0.951828" transform="matrix(0.173648 -0.984808 -0.984808 -0.173648 1248.24 697.806)" stroke="#E7E7E7" stroke-width="1.90366"/>
<line y1="-0.951828" x2="40.1001" y2="-0.951828" transform="matrix(0.5 0.866025 0.866025 -0.5 1241.98 291.266)" stroke="#E7E7E7" stroke-width="1.90366"/>
<line y1="-0.951828" x2="40.1001" y2="-0.951828" transform="matrix(0.642788 0.766044 0.766044 -0.642788 1238.22 204.052)" stroke="#E7E7E7" stroke-width="1.90366"/>
<line y1="-3.46458" x2="40.1001" y2="-3.46458" transform="matrix(0.766044 0.642788 0.642788 -0.766044 1235.71 117.531)" stroke="#FB8E37" stroke-width="6.92916"/>
<line y1="-0.951828" x2="40.1001" y2="-0.951828" transform="matrix(0.866025 0.5 0.5 -0.866025 1234.46 31.5998)" stroke="#E7E7E7" stroke-width="1.90366"/>
<line y1="-0.951828" x2="40.1001" y2="-0.951828" transform="matrix(4.37114e-08 1 1 -4.37114e-08 1252 557.912)" stroke="#E7E7E7" stroke-width="1.90366"/>
<line y1="-0.951828" x2="40.1001" y2="-0.951828" transform="matrix(0.173648 0.984808 0.984808 -0.173648 1248.24 468.145)" stroke="#E7E7E7" stroke-width="1.90366"/>
<line y1="-0.951828" x2="40.1001" y2="-0.951828" transform="matrix(0.34202 0.939693 0.939693 -0.34202 1244.48 379.272)" stroke="#E7E7E7" stroke-width="1.90366"/>
<line y1="-0.951828" x2="40.1001" y2="-0.951828" transform="matrix(0.34202 -0.939693 -0.939693 -0.34202 1174.31 876.911)" stroke="#E7E7E7" stroke-width="1.90366"/>
<line y1="-0.951828" x2="40.1001" y2="-0.951828" transform="matrix(0.173648 -0.984808 -0.984808 -0.173648 1178.07 788.037)" stroke="#E7E7E7" stroke-width="1.90366"/>
<line y1="-0.951828" x2="40.1001" y2="-0.951828" transform="matrix(0.5 0.866025 0.866025 -0.5 1171.8 381.498)" stroke="#E7E7E7" stroke-width="1.90366"/>
<line y1="-0.951828" x2="40.1001" y2="-0.951828" transform="matrix(0.642788 0.766044 0.766044 -0.642788 1168.04 294.272)" stroke="#E7E7E7" stroke-width="1.90366"/>
<line y1="-0.951828" x2="40.1001" y2="-0.951828" transform="matrix(0.766044 0.642788 0.642788 -0.766044 1165.54 207.75)" stroke="#E7E7E7" stroke-width="1.90366"/>
<line y1="-0.951828" x2="40.1001" y2="-0.951828" transform="matrix(0.866025 0.5 0.5 -0.866025 1164.28 121.819)" stroke="#E7E7E7" stroke-width="1.90366"/>
<line y1="-0.951828" x2="40.1001" y2="-0.951828" transform="matrix(0.939693 0.34202 0.34202 -0.939693 1163.03 36.3534)" stroke="#E7E7E7" stroke-width="1.90366"/>
<line y1="-0.951828" x2="40.1001" y2="-0.951828" transform="matrix(4.37114e-08 1 1 -4.37114e-08 1181.83 648.143)" stroke="#E7E7E7" stroke-width="1.90366"/>
<line y1="-0.951828" x2="40.1001" y2="-0.951828" transform="matrix(0.173648 0.984808 0.984808 -0.173648 1178.07 558.377)" stroke="#E7E7E7" stroke-width="1.90366"/>
<line y1="-0.951828" x2="40.1001" y2="-0.951828" transform="matrix(0.34202 0.939693 0.939693 -0.34202 1174.31 469.504)" stroke="#E7E7E7" stroke-width="1.90366"/>
<line y1="-0.951828" x2="40.1001" y2="-0.951828" transform="matrix(0.173648 -0.984808 -0.984808 -0.173648 1107.89 878.256)" stroke="#E7E7E7" stroke-width="1.90366"/>
<line y1="-0.951828" x2="40.1001" y2="-0.951828" transform="matrix(0.5 0.866025 0.866025 -0.5 1101.63 471.717)" stroke="#E7E7E7" stroke-width="1.90366"/>
<line y1="-0.951828" x2="40.1001" y2="-0.951828" transform="matrix(0.642788 0.766044 0.766044 -0.642788 1097.87 384.503)" stroke="#E7E7E7" stroke-width="1.90366"/>
<line y1="-0.951828" x2="40.1001" y2="-0.951828" transform="matrix(0.766044 0.642788 0.642788 -0.766044 1095.36 297.981)" stroke="#E7E7E7" stroke-width="1.90366"/>
<line y1="-0.951828" x2="40.1001" y2="-0.951828" transform="matrix(0.866025 0.5 0.5 -0.866025 1094.11 212.051)" stroke="#E7E7E7" stroke-width="1.90366"/>
<line y1="-0.951828" x2="40.1001" y2="-0.951828" transform="matrix(0.939693 0.34202 0.34202 -0.939693 1092.86 126.573)" stroke="#E7E7E7" stroke-width="1.90366"/>
<line y1="-3.46458" x2="40.1001" y2="-3.46458" transform="matrix(0.984808 0.173648 0.173648 -0.984808 1091.6 41.4089)" stroke="#50D51B" stroke-width="6.92916"/>
<line y1="-3.46458" x2="40.1001" y2="-3.46458" transform="matrix(4.37114e-08 1 1 -4.37114e-08 1111.65 738.363)" stroke="#FF4EA2" stroke-width="6.92916"/>
<line y1="-0.951828" x2="40.1001" y2="-0.951828" transform="matrix(0.173648 0.984808 0.984808 -0.173648 1107.89 648.596)" stroke="#E7E7E7" stroke-width="1.90366"/>
<line y1="-0.951828" x2="40.1001" y2="-0.951828" transform="matrix(0.34202 0.939693 0.939693 -0.34202 1104.13 559.723)" stroke="#E7E7E7" stroke-width="1.90366"/>
<line y1="-0.951828" x2="40.1001" y2="-0.951828" transform="matrix(0.5 0.866025 0.866025 -0.5 1031.45 561.949)" stroke="#E7E7E7" stroke-width="1.90366"/>
<line y1="-0.951828" x2="40.1001" y2="-0.951828" transform="matrix(0.642788 0.766044 0.766044 -0.642788 1027.69 474.723)" stroke="#E7E7E7" stroke-width="1.90366"/>
<line y1="-0.951828" x2="40.1001" y2="-0.951828" transform="matrix(0.766044 0.642788 0.642788 -0.766044 1025.19 388.201)" stroke="#E7E7E7" stroke-width="1.90366"/>
<line y1="-0.951828" x2="40.1001" y2="-0.951828" transform="matrix(0.866025 0.5 0.5 -0.866025 1023.93 302.27)" stroke="#E7E7E7" stroke-width="1.90366"/>
<line y1="-0.951828" x2="40.1001" y2="-0.951828" transform="matrix(0.939693 0.34202 0.34202 -0.939693 1022.68 216.804)" stroke="#E7E7E7" stroke-width="1.90366"/>
<line y1="-0.951828" x2="40.1001" y2="-0.951828" transform="matrix(0.984808 0.173648 0.173648 -0.984808 1021.43 131.641)" stroke="#E7E7E7" stroke-width="1.90366"/>
<line y1="-0.951828" x2="40.1001" y2="-0.951828" transform="matrix(1 -4.37114e-08 -4.37114e-08 -1 1021.43 46.6405)" stroke="#E7E7E7" stroke-width="1.90366"/>
<line y1="-0.951828" x2="40.1001" y2="-0.951828" transform="matrix(4.37114e-08 1 1 -4.37114e-08 1041.48 828.594)" stroke="#E7E7E7" stroke-width="1.90366"/>
<line y1="-0.951828" x2="40.1001" y2="-0.951828" transform="matrix(0.173648 0.984808 0.984808 -0.173648 1037.72 738.828)" stroke="#E7E7E7" stroke-width="1.90366"/>
<line y1="-0.951828" x2="40.1001" y2="-0.951828" transform="matrix(0.34202 0.939693 0.939693 -0.34202 1033.96 649.954)" stroke="#E7E7E7" stroke-width="1.90366"/>
<line y1="-0.951828" x2="40.1001" y2="-0.951828" transform="matrix(0.5 0.866025 0.866025 -0.5 961.278 652.168)" stroke="#E7E7E7" stroke-width="1.90366"/>
<line y1="-0.951828" x2="40.1001" y2="-0.951828" transform="matrix(0.642788 0.766044 0.766044 -0.642788 957.518 564.954)" stroke="#E7E7E7" stroke-width="1.90366"/>
<line y1="-0.951828" x2="40.1001" y2="-0.951828" transform="matrix(0.766044 0.642788 0.642788 -0.766044 955.012 478.432)" stroke="#E7E7E7" stroke-width="1.90366"/>
<line y1="-0.951828" x2="40.1001" y2="-0.951828" transform="matrix(0.866025 0.5 0.5 -0.866025 953.758 392.502)" stroke="#E7E7E7" stroke-width="1.90366"/>
<line y1="-0.951828" x2="40.1001" y2="-0.951828" transform="matrix(0.939693 0.34202 0.34202 -0.939693 952.507 307.024)" stroke="#E7E7E7" stroke-width="1.90366"/>
<line y1="-3.46458" x2="40.1001" y2="-3.46458" transform="matrix(0.984808 0.173648 0.173648 -0.984808 951.252 221.86)" stroke="#048CD8" stroke-width="6.92916"/>
<line y1="-0.951828" x2="40.1001" y2="-0.951828" transform="matrix(1 -4.37114e-08 -4.37114e-08 -1 951.252 136.86)" stroke="#E7E7E7" stroke-width="1.90366"/>
<line y1="-0.951828" x2="40.1001" y2="-0.951828" transform="matrix(0.984808 -0.173648 -0.173648 -0.984808 951.252 51.8595)" stroke="#E7E7E7" stroke-width="1.90366"/>
<line y1="-0.951828" x2="40.1001" y2="-0.951828" transform="matrix(0.173648 0.984808 0.984808 -0.173648 967.544 829.047)" stroke="#E7E7E7" stroke-width="1.90366"/>
<line y1="-0.951828" x2="40.1001" y2="-0.951828" transform="matrix(0.34202 0.939693 0.939693 -0.34202 963.784 740.174)" stroke="#E7E7E7" stroke-width="1.90366"/>
<line y1="-0.951828" x2="40.1001" y2="-0.951828" transform="matrix(0.939693 -0.34202 -0.34202 -0.939693 882.33 56.915)" stroke="#E7E7E7" stroke-width="1.90366"/>
<line y1="-0.951828" x2="40.1001" y2="-0.951828" transform="matrix(0.5 0.866025 0.866025 -0.5 891.102 742.4)" stroke="#E7E7E7" stroke-width="1.90366"/>
<line y1="-0.951828" x2="40.1001" y2="-0.951828" transform="matrix(0.642788 0.766044 0.766044 -0.642788 887.342 655.173)" stroke="#E7E7E7" stroke-width="1.90366"/>
<line y1="-0.951828" x2="40.1001" y2="-0.951828" transform="matrix(0.766044 0.642788 0.642788 -0.766044 884.836 568.652)" stroke="#E7E7E7" stroke-width="1.90366"/>
<line y1="-0.951828" x2="40.1001" y2="-0.951828" transform="matrix(0.866025 0.5 0.5 -0.866025 883.585 482.721)" stroke="#E7E7E7" stroke-width="1.90366"/>
<line y1="-0.951828" x2="40.1001" y2="-0.951828" transform="matrix(0.939693 0.34202 0.34202 -0.939693 882.33 397.255)" stroke="#E7E7E7" stroke-width="1.90366"/>
<line y1="-0.951828" x2="40.1001" y2="-0.951828" transform="matrix(0.984808 0.173648 0.173648 -0.984808 881.076 312.092)" stroke="#E7E7E7" stroke-width="1.90366"/>
<line y1="-0.951828" x2="40.1001" y2="-0.951828" transform="matrix(1 -4.37114e-08 -4.37114e-08 -1 881.076 227.091)" stroke="#E7E7E7" stroke-width="1.90366"/>
<line y1="-0.951828" x2="40.1001" y2="-0.951828" transform="matrix(0.984808 -0.173648 -0.173648 -0.984808 881.076 142.079)" stroke="#E7E7E7" stroke-width="1.90366"/>
<line y1="-0.951828" x2="40.1001" y2="-0.951828" transform="matrix(0.34202 0.939693 0.939693 -0.34202 893.608 830.405)" stroke="#E7E7E7" stroke-width="1.90366"/>
<line y1="-0.951828" x2="40.1001" y2="-0.951828" transform="matrix(0.939693 -0.34202 -0.34202 -0.939693 812.154 147.147)" stroke="#E7E7E7" stroke-width="1.90366"/>
<line y1="-0.951828" x2="40.1001" y2="-0.951828" transform="matrix(0.866025 -0.5 -0.5 -0.866025 813.408 61.6686)" stroke="#E7E7E7" stroke-width="1.90366"/>
<line y1="-0.951828" x2="40.1001" y2="-0.951828" transform="matrix(0.5 0.866025 0.866025 -0.5 820.926 832.619)" stroke="#E7E7E7" stroke-width="1.90366"/>
<line y1="-0.951828" x2="40.1001" y2="-0.951828" transform="matrix(0.642788 0.766044 0.766044 -0.642788 817.168 745.405)" stroke="#E7E7E7" stroke-width="1.90366"/>
<line y1="-3.46458" x2="40.1001" y2="-3.46458" transform="matrix(0.766044 0.642788 0.642788 -0.766044 814.663 658.883)" stroke="#50D51B" stroke-width="6.92916"/>
<line y1="-0.951828" x2="40.1001" y2="-0.951828" transform="matrix(0.866025 0.5 0.5 -0.866025 813.408 572.953)" stroke="#E7E7E7" stroke-width="1.90366"/>
<line y1="-0.951828" x2="40.1001" y2="-0.951828" transform="matrix(0.939693 0.34202 0.34202 -0.939693 812.154 487.474)" stroke="#E7E7E7" stroke-width="1.90366"/>
<line y1="-0.951828" x2="40.1001" y2="-0.951828" transform="matrix(0.984808 0.173648 0.173648 -0.984808 810.903 402.311)" stroke="#E7E7E7" stroke-width="1.90366"/>
<line y1="-0.951828" x2="40.1001" y2="-0.951828" transform="matrix(1 -4.37114e-08 -4.37114e-08 -1 810.903 317.311)" stroke="#E7E7E7" stroke-width="1.90366"/>
<line y1="-0.951828" x2="40.1001" y2="-0.951828" transform="matrix(0.984808 -0.173648 -0.173648 -0.984808 810.903 232.31)" stroke="#E7E7E7" stroke-width="1.90366"/>
<line y1="-0.951828" x2="40.1001" y2="-0.951828" transform="matrix(0.939693 -0.34202 -0.34202 -0.939693 741.981 237.366)" stroke="#E7E7E7" stroke-width="1.90366"/>
<line y1="-3.46458" x2="40.1001" y2="-3.46458" transform="matrix(0.866025 -0.5 -0.5 -0.866025 743.232 151.9)" stroke="#FF4EA2" stroke-width="6.92916"/>
<line y1="-0.951828" x2="40.1001" y2="-0.951828" transform="matrix(0.766044 -0.642788 -0.642788 -0.766044 744.487 65.9696)" stroke="#E7E7E7" stroke-width="1.90366"/>
<line y1="-0.951828" x2="40.1001" y2="-0.951828" transform="matrix(0.642788 0.766044 0.766044 -0.642788 746.992 835.624)" stroke="#E7E7E7" stroke-width="1.90366"/>
<line y1="-0.951828" x2="40.1001" y2="-0.951828" transform="matrix(0.766044 0.642788 0.642788 -0.766044 744.486 749.102)" stroke="#E7E7E7" stroke-width="1.90366"/>
<line y1="-0.951828" x2="40.1001" y2="-0.951828" transform="matrix(0.866025 0.5 0.5 -0.866025 743.232 663.172)" stroke="#E7E7E7" stroke-width="1.90366"/>
<line y1="-0.951828" x2="40.1001" y2="-0.951828" transform="matrix(0.939693 0.34202 0.34202 -0.939693 741.981 577.706)" stroke="#E7E7E7" stroke-width="1.90366"/>
<line y1="-0.951828" x2="40.1001" y2="-0.951828" transform="matrix(0.984808 0.173648 0.173648 -0.984808 740.726 492.543)" stroke="#E7E7E7" stroke-width="1.90366"/>
<line y1="-0.951828" x2="40.1001" y2="-0.951828" transform="matrix(1 -4.37114e-08 -4.37114e-08 -1 740.726 407.542)" stroke="#E7E7E7" stroke-width="1.90366"/>
<line y1="-0.951828" x2="40.1001" y2="-0.951828" transform="matrix(0.984808 -0.173648 -0.173648 -0.984808 740.726 322.53)" stroke="#E7E7E7" stroke-width="1.90366"/>
</g>
<defs>
<clipPath id="clip0_146_3482">
<rect width="1440" height="883" fill="white"/>
</clipPath>
</defs>
</svg>

